<svg xmlns="http://www.w3.org/2000/svg" xmlns:xlink="http://www.w3.org/1999/xlink" width="208" height="62" viewBox="0 0 208 62">
  <defs>
    <clipPath id="clip-path">
      <rect id="Retângulo_28042" data-name="Retângulo 28042" width="208" height="62" transform="translate(34 134)" fill="#fff" stroke="#707070" stroke-width="1"/>
    </clipPath>
  </defs>
  <g transform="translate(-34 -134)" clip-path="url(#clip-path)">
    <g transform="translate(34 134)">
      <path d="M383.185,0l-9.448,53.38s-.76,3.754-2.649,5.79c-.093.1-.189.2-.285.3a9.261,9.261,0,0,1-6.563,2.646h94.489a9.281,9.281,0,0,0,6.563-2.646c.1-.1.192-.195.285-.3,1.889-2.036,2.649-5.79,2.649-5.79L477.155,0Z" transform="translate(-269.751)" fill="#00448f"/>
      <path d="M18.426,0,9.5,53.38s-.76,3.754-2.649,5.79c-.093.1-.189.2-.285.3A9.261,9.261,0,0,1,0,62.112H94.489a9.281,9.281,0,0,0,6.563-2.646c.1-.1.192-.195.285-.3,1.889-2.036,2.649-5.79,2.649-5.79L113.434,0Z" transform="translate(0)" fill="#00993b"/>
      <g transform="translate(19.817 8.789)">
        <path d="M546.008,33.88,538.06,78.406h25.415l1.372-8.734H549.638l2.355-10.5h13.443l1.572-8.094H553.171L554.74,42.3h14.426l1.767-8.415Z" transform="translate(-418.296 -33.88)" fill="#fff"/>
        <path d="M427.991,55.157s8.929-2.747,8.929-11.676-9.912-9.591-9.912-9.591l-18.3.075L400.83,78.416h20.582s12.364-.589,13.541-10.5-6.968-12.755-6.968-12.755m-4.76,9.814c-1.108,6.5-9.876,5.131-9.876,5.131l1.857-10.919c-.4.221,8.986.114,8.018,5.788m1.767-18.937c-1.767,5.385-8.1,5.053-8.1,5.053l1.427-9.028s8.436-1.411,6.67,3.974" transform="translate(-316.666 -33.887)" fill="#fff"/>
        <path d="M344.954,34.17,337.2,78.621h10.205L355.65,34.17Z" transform="translate(-269.542 -34.095)" fill="#fff"/>
        <path d="M230.551,44.459c-.589-9.64-9.051-10.3-9.051-10.3H202.293L194.42,78.611h11.038l2.5-17.075s3.9-.882,5.666,1.326,1.25,15.749,1.25,15.749h11.038a27.638,27.638,0,0,1-1.03-5.593c-.361-4.633-.3-10.693-.957-12.143a6.172,6.172,0,0,0-2.944-3.165s10.156-3.611,9.567-13.251m-11.113,3.095c-1.546,7.507-9.936,6.182-9.936,6.182l2.06-12.364s1.7-.078,2.994-.01c2.68.143,5.925,1.123,4.882,6.192" transform="translate(-163.801 -34.087)" fill="#fff"/>
        <path d="M84.191,34.17h25.464L108.184,42.7H93.024L91.4,52.568h14.13L104.062,61.1H89.931l-3.09,17.516H76.39Z" transform="translate(-76.39 -34.095)" fill="#fff"/>
        <path d="M663.268,33.88,655.32,78.406h25.415l1.668-8.833H667.536l6.527-35.693Z" transform="translate(-505.137 -33.88)" fill="#fff"/>
      </g>
    </g>
  </g>
</svg>
